# xmcd CD database file
#
# Track frame offsets:
#	150
#	17289
#	33800
#	50739
#	66011
#	82131
#	101398
#	110017
#	130439
#	144989
#	162236
#	175246
#	187223
#	211965
#
# Disc length: 4636 seconds
#
# Revision: 1
# Processed by: cddbd v1.5.2PL0 Copyright (c) Steve Scherf et al.
# Submitted via: CDex 1.70beta2
#
DISCID=c2121a0e
DTITLE=Steinar Engelbretson Band - På grunn av bagateller
DYEAR=2005
DGENRE=Danseband
TTITLE0=På grunn av batgateller
TTITLE1=Sweet destiny
TTITLE2=Still remember
TTITLE3=Tar du med ei helsing
TTITLE4=Okie from Muskogee
TTITLE5=Shine on
TTITLE6=Teletrøbbel
TTITLE7=Vanskeleg å forstå
TTITLE8=Stone cold ashes
TTITLE9=Sola går ned
TTITLE10=Inn mot land
TTITLE11=Ny bil
TTITLE12=Sekstitallsmusikk
TTITLE13=Video på grun av bagateller
EXTD=YEAR: 2005
EXTT0=
EXTT1=
EXTT2=
EXTT3=
EXTT4=
EXTT5=
EXTT6=
EXTT7=
EXTT8=
EXTT9=
EXTT10=
EXTT11=
EXTT12=
EXTT13=
PLAYORDER=
